<svg width="346" height="451" viewBox="0 0 346 451" fill="none" xmlns="http://www.w3.org/2000/svg">
<path fill-rule="evenodd" clip-rule="evenodd" d="M68.6336 450.798C74.121 450.798 78.5694 446.321 78.5694 440.799V292.442C78.5694 286.919 83.0178 282.443 88.5052 282.443H168.544C172.439 282.443 175.975 284.733 177.588 288.301L248.405 444.94C250.018 448.508 253.554 450.798 257.449 450.798H321.424C328.684 450.798 333.493 443.217 330.436 436.589L256.028 275.246C253.998 270.845 265.131 265.77 271.592 262.824C272.701 262.319 273.673 261.876 274.417 261.51C296.369 250.707 313.273 236.1 325.13 217.69C339.043 196.312 346 170.617 346 140.605C346 96.2031 331.677 61.6687 303.032 37.0012C274.796 12.3337 221.999 0 171.257 0H9.9358C4.44841 0 0 4.47681 0 9.99922V440.799C0 446.321 4.4484 450.798 9.93579 450.798H68.6336ZM79.0146 140.563C79.0146 175.418 107.206 203.775 141.858 203.775C171.757 203.775 196.842 182.663 203.163 154.482H253.801V173.219C253.801 178.567 257.904 182.919 262.948 182.919C267.993 182.919 272.096 178.567 272.096 173.219V172.844C272.096 171.061 273.538 169.611 275.311 169.611H280.428C282.2 169.611 283.642 171.061 283.642 172.844V173.219C283.642 178.567 287.746 182.919 292.79 182.919C297.834 182.919 301.937 178.567 301.937 173.219V154.482H306.378C314.009 154.482 320.217 148.238 320.217 140.563C320.217 132.888 314.009 126.644 306.378 126.644H203.163C196.842 98.4635 171.756 77.3516 141.858 77.3516C107.206 77.3516 79.0146 105.709 79.0146 140.563Z" fill="white"/>
</svg>
