<svg width="140" height="140" viewBox="0 0 140 140" fill="none" xmlns="http://www.w3.org/2000/svg">
<rect width="140" height="140" rx="70" fill="#181BF2"/>
<g clip-path="url(#clip0_289_15)">
<path d="M70 43.7653C78.544 43.7653 79.5573 43.7973 82.9307 43.952C86.4187 44.112 90.0107 44.9067 92.552 47.448C95.1173 50.0133 95.888 53.5707 96.048 57.0693C96.2027 60.4427 96.2347 61.456 96.2347 70C96.2347 78.544 96.2027 79.5573 96.048 82.9307C95.8907 86.4 95.0773 90.0267 92.552 92.552C89.9867 95.1173 86.432 95.888 82.9307 96.048C79.5573 96.2027 78.544 96.2347 70 96.2347C61.456 96.2347 60.4427 96.2027 57.0693 96.048C53.6267 95.8907 49.952 95.0587 47.448 92.552C44.896 90 44.112 86.408 43.952 82.9307C43.7973 79.5573 43.7653 78.544 43.7653 70C43.7653 61.456 43.7973 60.4427 43.952 57.0693C44.1093 53.6133 44.9307 49.9653 47.448 47.448C50.008 44.888 53.5787 44.112 57.0693 43.952C60.4427 43.7973 61.456 43.7653 70 43.7653ZM70 38C61.3093 38 60.2187 38.0373 56.8053 38.192C51.8587 38.4187 46.9467 39.7947 43.3707 43.3707C39.7813 46.96 38.4187 51.8613 38.192 56.8053C38.0373 60.2187 38 61.3093 38 70C38 78.6907 38.0373 79.7813 38.192 83.1947C38.4187 88.136 39.8 93.0613 43.3707 96.6293C46.9573 100.216 51.8667 101.581 56.8053 101.808C60.2187 101.963 61.3093 102 70 102C78.6907 102 79.7813 101.963 83.1947 101.808C88.1387 101.581 93.056 100.203 96.6293 96.6293C100.221 93.0373 101.581 88.1387 101.808 83.1947C101.963 79.7813 102 78.6907 102 70C102 61.3093 101.963 60.2187 101.808 56.8053C101.581 51.8587 100.203 46.944 96.6293 43.3707C93.048 39.7893 88.1253 38.416 83.1947 38.192C79.7813 38.0373 78.6907 38 70 38Z" fill="white"/>
<path d="M70 53.5684C60.9253 53.5684 53.568 60.9257 53.568 70.0004C53.568 79.075 60.9253 86.4324 70 86.4324C79.0747 86.4324 86.432 79.075 86.432 70.0004C86.432 60.9257 79.0747 53.5684 70 53.5684ZM70 80.667C64.1093 80.667 59.3333 75.891 59.3333 70.0004C59.3333 64.1097 64.1093 59.3337 70 59.3337C75.8907 59.3337 80.6667 64.1097 80.6667 70.0004C80.6667 75.891 75.8907 80.667 70 80.667Z" fill="white"/>
<path d="M87.0827 56.7581C89.2034 56.7581 90.9227 55.0389 90.9227 52.9181C90.9227 50.7974 89.2034 49.0781 87.0827 49.0781C84.9619 49.0781 83.2427 50.7974 83.2427 52.9181C83.2427 55.0389 84.9619 56.7581 87.0827 56.7581Z" fill="white"/>
</g>
<defs>
<clipPath id="clip0_289_15">
<rect width="64" height="64" fill="white" transform="translate(38 38)"/>
</clipPath>
</defs>
</svg>
