<svg width="784" height="121" viewBox="0 0 784 121" fill="none" xmlns="http://www.w3.org/2000/svg">
<path d="M23.0712 67.424V59.36H42.8952C57.1752 59.36 64.2312 49.112 64.2312 38.864C64.2312 28.784 57.1752 18.536 42.8952 18.536H16.8552V119H0.0552189V1.39999H42.8952C68.4312 1.39999 81.1992 20.216 81.1992 38.864C81.1992 55.496 70.9512 71.288 50.7912 74.816L87.9192 119H65.9112L23.0712 67.424ZM132.329 120.176C111.665 120.176 88.817 107.744 88.817 83.72V1.56799H105.953V83.888C105.953 96.824 119.897 103.208 132.329 103.208C144.593 103.208 158.537 96.656 158.537 83.72V1.56799H175.673V83.888C175.673 107.744 152.489 120.176 132.329 120.176ZM268.387 31.136L251.587 31.808C249.235 21.224 237.811 16.688 227.563 16.856C219.667 17.024 210.931 19.712 206.227 25.76C203.875 28.784 203.035 32.648 203.371 36.68C204.211 48.776 217.483 50.288 230.083 51.464C246.211 53.48 266.203 57.68 270.739 76.496C271.243 79.016 271.579 81.872 271.579 84.224C271.579 106.904 249.067 120.008 227.899 120.008C209.755 120.008 187.747 109.256 185.563 88.256L185.395 85.064L202.531 84.728L202.699 87.248V86.576C203.875 97.496 217.147 103.208 228.067 103.208C240.667 103.208 254.443 96.152 254.443 84.056C254.443 82.88 254.275 81.536 253.939 80.024C251.923 71.12 239.827 69.608 228.067 68.432C209.755 66.584 188.251 62.552 186.403 38.024V38.192C185.731 30.296 187.747 22.4 192.787 15.848C200.683 5.6 214.795 0.223997 228.403 0.223997C246.547 0.223997 265.363 9.632 268.387 31.136ZM297.234 1.56799V51.128H346.962V1.56799H364.098V119H346.962V67.928H297.234V119H280.266V1.56799H297.234ZM457.345 67.424V59.36H477.169C491.449 59.36 498.505 49.112 498.505 38.864C498.505 28.784 491.449 18.536 477.169 18.536H451.129V119H434.329V1.39999H477.169C502.705 1.39999 515.473 20.216 515.473 38.864C515.473 55.496 505.225 71.288 485.065 74.816L522.193 119H500.185L457.345 67.424ZM540.859 68.768V102.032H595.459V119H523.723V1.56799H595.291V18.536H540.859V51.632H594.115V68.768H540.859ZM619.949 119H602.981V1.23199L616.085 1.39999L673.373 84.224V1.39999H690.173V119H676.733L619.949 36.848V119ZM748.283 119.504H731.315V18.536H695.699V1.39999H783.731V18.536H748.283V119.504Z" fill="white"/>
</svg>
