<svg width="821" height="114" viewBox="0 0 821 114" fill="none" xmlns="http://www.w3.org/2000/svg">
<path d="M19.6645 110.792C19.6645 112.18 18.5511 113.305 17.1777 113.305H2.48675C1.11335 113.305 0 112.18 0 110.792V2.51324C0 1.12522 1.11336 0 2.48675 0H42.8624C55.5624 0 68.7765 3.1 75.8434 9.30001C83.0128 15.5 86.5975 24.18 86.5975 35.34C86.5975 42.8834 84.8563 49.3417 81.3741 54.715C78.4065 59.3422 74.1756 63.0135 68.6814 65.7287C67.4113 66.3564 63.4838 67.8851 64.079 69.1812L82.7021 109.734C83.4671 111.4 82.2636 113.305 80.4465 113.305H64.4348C63.4599 113.305 62.575 112.729 62.1713 111.833L44.4471 72.4625C44.0434 71.5657 43.1584 70.99 42.1836 70.99H22.1512C20.7778 70.99 19.6645 72.1153 19.6645 73.5033V110.792Z" fill="black"/>
<path d="M35.5049 51.217C26.8322 51.217 19.7764 44.0897 19.7764 35.3292C19.7764 26.5687 26.8322 19.4414 35.5049 19.4414C42.9879 19.4414 49.2665 24.7477 50.8484 31.8307L76.6813 31.8307C78.5911 31.8307 80.1448 33.4001 80.1448 35.3292C80.1448 37.2583 78.5911 38.8277 76.6813 38.8277L75.5698 38.8277L75.5698 43.5371C75.5698 44.8814 74.5428 45.975 73.2805 45.975C72.018 45.975 70.991 44.8814 70.991 43.5371L70.991 43.4428C70.991 42.9947 70.6301 42.6301 70.1864 42.6301L68.9057 42.6301C68.462 42.6301 68.1011 42.9947 68.1011 43.4428L68.1011 43.5371C68.1011 44.8814 67.0741 45.975 65.8116 45.975C64.5492 45.975 63.5221 44.8814 63.5221 43.5371L63.5221 38.8277L50.8485 38.8277C49.2665 45.9107 42.988 51.217 35.5049 51.217Z" fill="white"/>
<path d="M465.664 110.792C465.664 112.18 464.551 113.305 463.178 113.305H448.487C447.113 113.305 446 112.18 446 110.792V2.51324C446 1.12522 447.113 0 448.487 0H488.862C501.562 0 514.777 3.1 521.843 9.30001C529.013 15.5 532.597 24.18 532.597 35.34C532.597 42.8834 530.856 49.3417 527.374 54.715C524.407 59.3422 520.176 63.0135 514.681 65.7287C513.411 66.3564 509.484 67.8851 510.079 69.1812L528.702 109.734C529.467 111.4 528.264 113.305 526.446 113.305H510.435C509.46 113.305 508.575 112.729 508.171 111.833L490.447 72.4625C490.043 71.5657 489.158 70.99 488.184 70.99H468.151C466.778 70.99 465.664 72.1153 465.664 73.5033V110.792Z" fill="black"/>
<path d="M481.505 51.217C472.832 51.217 465.776 44.0897 465.776 35.3292C465.776 26.5687 472.832 19.4414 481.505 19.4414C488.988 19.4414 495.267 24.7477 496.848 31.8307L522.681 31.8307C524.591 31.8307 526.145 33.4001 526.145 35.3292C526.145 37.2583 524.591 38.8277 522.681 38.8277L521.57 38.8277L521.57 43.5371C521.57 44.8814 520.543 45.975 519.28 45.975C518.018 45.975 516.991 44.8814 516.991 43.5371L516.991 43.4428C516.991 42.9947 516.63 42.6301 516.186 42.6301L514.906 42.6301C514.462 42.6301 514.101 42.9947 514.101 43.4428L514.101 43.5371C514.101 44.8814 513.074 45.975 511.812 45.975C510.549 45.975 509.522 44.8814 509.522 43.5371L509.522 38.8277L496.849 38.8277C495.267 45.9107 488.988 51.217 481.505 51.217Z" fill="white"/>
<path d="M98 71.2034V1.94056H117.079V70.0092C117.079 77.871 119.166 83.8917 123.34 88.0713C127.513 92.251 133.426 94.3408 141.077 94.3408C148.828 94.3408 154.79 92.251 158.964 88.0713C163.138 83.7922 165.224 77.7715 165.224 70.0092V1.94056H184.304V71.2034C184.304 79.6623 182.515 87.0264 178.938 93.2959C175.46 99.4659 170.491 104.292 164.032 107.775C157.573 111.159 149.921 112.851 141.077 112.851C132.333 112.851 124.731 111.159 118.272 107.775C111.813 104.392 106.794 99.5654 103.217 93.2959C99.739 87.0264 98 79.6623 98 71.2034Z" fill="black"/>
<path d="M201.511 32.3923C201.511 26.0233 203.151 20.4007 206.43 15.5244C209.71 10.6482 214.231 6.86658 219.994 4.17966C225.857 1.39322 232.615 0 240.266 0C247.62 0 253.979 1.2937 259.345 3.8811C264.811 6.46851 269.034 10.1506 272.015 14.9273C275.096 19.7041 276.735 25.3765 276.934 31.9445H257.855C257.656 27.2673 255.967 23.635 252.787 21.0476C249.607 18.3606 245.334 17.0172 239.968 17.0172C234.105 17.0172 229.385 18.3606 225.808 21.0476C222.33 23.635 220.591 27.2175 220.591 31.7952C220.591 35.6764 221.634 38.7613 223.721 41.0502C225.907 43.2395 229.286 44.8815 233.857 45.9762L250.998 49.8573C260.339 51.8476 267.295 55.2809 271.866 60.1572C276.437 64.9339 278.723 71.4025 278.723 79.5627C278.723 86.2303 277.083 92.1017 273.804 97.177C270.525 102.252 265.854 106.183 259.792 108.97C253.83 111.657 246.825 113 238.776 113C231.124 113 224.416 111.706 218.653 109.119C212.889 106.432 208.368 102.7 205.089 97.9234C201.909 93.1466 200.22 87.524 200.021 81.0555H219.1C219.199 85.6332 220.988 89.2655 224.466 91.9524C228.043 94.5398 232.863 95.8335 238.925 95.8335C245.284 95.8335 250.303 94.5398 253.979 91.9524C257.755 89.2655 259.643 85.7327 259.643 81.354C259.643 77.5724 258.65 74.587 256.662 72.3976C254.675 70.1088 251.445 68.5165 246.974 67.6209L229.683 63.7398C220.442 61.7494 213.436 58.1669 208.666 52.9921C203.896 47.7177 201.511 40.8512 201.511 32.3923Z" fill="black"/>
<path d="M315.062 111.059H295.983V1.94056H315.062V47.1704H363.356V1.94056H382.436V111.059H363.356V64.7847H315.062V111.059Z" fill="black"/>
<path d="M614.168 111.059H546.497V1.94056H614.168V19.5548H558.868L565.576 13.4346V47.6182H609.1V64.4861H565.576V99.5654L558.868 93.4452H614.168V111.059Z" fill="black"/>
<path d="M653.489 111.059H634.708V1.94056H653.638L710.279 87.7728H704.764V1.94056H723.545V111.059H704.764L647.974 25.3765H653.489V111.059Z" fill="black"/>
<path d="M789.102 11.0462V111.059H770.023V11.0462H789.102ZM738.125 19.5548V1.94056H821V19.5548H738.125Z" fill="black"/>
</svg>
