<svg width="140" height="140" viewBox="0 0 140 140" fill="none" xmlns="http://www.w3.org/2000/svg">
<rect width="140" height="140" rx="70" fill="#181BF2"/>
<g clip-path="url(#clip0_289_6)">
<path d="M101.771 84.5838C101.325 83.3731 100.48 82.7251 99.5147 82.1891C99.3333 82.0824 99.1653 81.9971 99.024 81.9304C98.736 81.7811 98.4427 81.6371 98.1493 81.4878C95.144 79.8931 92.7947 77.8824 91.1653 75.4984C90.704 74.8264 90.3013 74.1171 89.9653 73.3731C89.8267 72.9758 89.8347 72.7518 89.9333 72.5438C90.032 72.3838 90.1627 72.2478 90.3173 72.1438C90.8347 71.8024 91.368 71.4558 91.728 71.2211C92.3707 70.8024 92.8827 70.4744 93.2107 70.2398C94.4453 69.3758 95.3093 68.4584 95.848 67.4344C96.6107 66.0024 96.7093 64.3091 96.1253 62.7944C95.3067 60.6424 93.2747 59.3064 90.8133 59.3064C90.2933 59.3064 89.776 59.3624 89.2693 59.4691C89.1333 59.4984 88.9973 59.5304 88.8667 59.5651C88.888 58.0931 88.856 56.5411 88.7253 55.0104C88.2613 49.6344 86.3787 46.8184 84.416 44.5704C83.16 43.1624 81.68 41.9704 80.0347 41.0451C77.0587 39.3464 73.68 38.4824 70 38.4824C66.32 38.4824 62.96 39.3464 59.9787 41.0451C58.3307 41.9731 56.8453 43.1678 55.5893 44.5784C53.6267 46.8238 51.744 49.6478 51.28 55.0184C51.1493 56.5464 51.1173 58.1091 51.1387 59.5704C51.0053 59.5358 50.872 59.5064 50.7387 59.4744C50.2293 59.3651 49.712 59.3118 49.192 59.3118C46.728 59.3118 44.6933 60.6478 43.8773 62.7998C43.288 64.3144 43.3867 66.0104 44.1467 67.4451C44.688 68.4718 45.5493 69.3864 46.7867 70.2504C47.1147 70.4798 47.6267 70.8104 48.2693 71.2318C48.616 71.4584 49.1253 71.7891 49.624 72.1171C49.8 72.2291 49.9467 72.3784 50.0587 72.5544C50.1627 72.7704 50.1653 72.9998 50.0107 73.4238C49.68 74.1518 49.2853 74.8478 48.832 75.5038C47.24 77.8398 44.96 79.8131 42.0507 81.3944C40.5093 82.2131 38.9067 82.7571 38.2293 84.5971C37.7173 85.9864 38.0507 87.5651 39.3493 88.8958C39.824 89.3918 40.376 89.8104 40.984 90.1331C42.248 90.8264 43.592 91.3651 44.984 91.7331C45.272 91.8078 45.544 91.9304 45.792 92.0958C46.264 92.5091 46.1973 93.1331 46.8267 94.0451C47.144 94.5171 47.544 94.9251 48.0107 95.2478C49.3307 96.1598 50.816 96.2158 52.3893 96.2771C53.8107 96.3304 55.4213 96.3944 57.2613 96.9998C58.024 97.2504 58.816 97.7384 59.7333 98.3091C61.936 99.6638 64.952 101.514 69.9973 101.514C75.0427 101.514 78.08 99.6531 80.2987 98.2931C81.2107 97.7331 81.9973 97.2504 82.7387 97.0051C84.5787 96.3971 86.1893 96.3358 87.6107 96.2824C89.184 96.2238 90.6693 96.1651 91.9893 95.2531C92.5413 94.8691 93.0027 94.3651 93.336 93.7811C93.7893 93.0104 93.776 92.4718 94.2027 92.0958C94.4347 91.9384 94.6907 91.8211 94.9627 91.7491C96.376 91.3784 97.7387 90.8371 99.0187 90.1331C99.664 89.7891 100.245 89.3331 100.736 88.7891L100.752 88.7678C101.963 87.4718 102.269 85.9384 101.771 84.5838ZM98.24 86.1224C98.16 86.3704 97.8853 86.6611 97.2853 86.9944C94.5493 88.5064 92.7307 88.3438 91.3173 89.2558C90.792 89.5944 90.632 90.1038 90.5467 90.6211C90.5093 90.8344 90.488 91.0504 90.456 91.2558C90.3893 91.6851 90.288 92.0691 89.9547 92.2984C88.8827 93.0398 85.712 92.2478 81.616 93.5998C78.2373 94.7171 76.0827 97.9278 70.008 97.9278C63.9307 97.9278 61.8267 94.7224 58.392 93.5918C54.304 92.2398 51.128 93.0318 50.0507 92.2931C49.1787 91.6931 49.888 90.0238 48.688 89.2504C47.272 88.3411 45.4533 88.5011 42.72 86.9998C41.84 86.5144 41.6587 86.1224 41.7653 85.8184C41.7653 85.8104 41.768 85.8051 41.7733 85.7971C41.888 85.5064 42.264 85.2958 42.5467 85.1598C47.192 82.9118 50.008 80.0878 51.6933 77.6691C52.032 77.1838 52.3227 76.7171 52.576 76.2718C53.7547 74.1971 54.0747 72.6451 54.1067 72.4051C54.192 71.7411 54.2853 71.2158 53.552 70.5411C52.8453 69.8851 49.704 67.9411 48.832 67.3331C48.2373 66.9171 47.6213 66.4184 47.2907 65.7544C46.5707 64.3118 47.6987 62.9064 49.184 62.9064C49.448 62.9064 49.712 62.9384 49.9707 62.9944C51.552 63.3384 53.0907 64.1304 53.9787 64.3438C54.5653 64.4851 54.9493 64.2184 54.9147 63.6078C54.8133 61.8744 54.568 58.5011 54.84 55.3464C54.9733 53.7971 55.2853 52.2238 55.856 50.7571C56.4053 49.3464 57.2827 48.0878 58.272 46.9544C59.072 46.0398 62.8187 42.0798 69.992 42.0798C75.592 42.0798 79.112 44.4878 80.7653 45.9758C83.4027 48.3998 84.8533 51.7891 85.152 55.3278C85.424 58.4824 85.1893 61.8584 85.0773 63.5891C85.04 64.1784 85.4533 64.4691 86.0133 64.3278C86.904 64.1118 88.44 63.3198 90.024 62.9758C91.192 62.7224 92.5467 63.0798 92.8667 64.3651C93.1307 65.4664 92.4907 66.3891 91.1653 67.3144C90.2933 67.9224 87.152 69.8638 86.4453 70.5198C85.712 71.1971 85.808 71.7198 85.8933 72.3864C85.9333 72.6958 86.4347 75.1118 88.568 78.0211L88.5733 78.0264C88.6613 78.1464 88.752 78.2691 88.848 78.3918C89.328 79.0158 89.8853 79.6611 90.528 80.3091C92.192 81.9838 94.4373 83.6851 97.4533 85.1411C97.7013 85.2611 97.9867 85.4104 98.1493 85.6398C98.248 85.7758 98.2987 85.9571 98.24 86.1224Z" fill="white"/>
</g>
<defs>
<clipPath id="clip0_289_6">
<rect width="64" height="64" fill="white" transform="translate(38 38)"/>
</clipPath>
</defs>
</svg>
